<svg width="114" height="28" viewBox="0 0 114 28" fill="none" xmlns="http://www.w3.org/2000/svg">
<path d="M13.9224 28C21.6115 28 27.8448 21.732 27.8448 14C27.8448 6.26801 21.6115 0 13.9224 0C6.23327 0 0 6.26801 0 14C0 21.732 6.23327 28 13.9224 28Z" fill="#0F6EFF"/>
<path d="M23.0079 6.61668C22.9655 6.96364 22.9292 7.31057 22.8747 7.65753C22.6275 9.23155 22.0984 10.7473 21.313 12.1314C20.6015 13.4311 19.6834 14.6053 18.5951 15.6071C18.5548 15.6472 18.5241 15.6959 18.5052 15.7496C18.4863 15.8034 18.4798 15.8609 18.4861 15.9176C18.3933 18.2008 17.4641 20.3688 15.8772 22.0045C15.7963 22.1041 15.6824 22.171 15.5564 22.1931C15.4556 22.1982 15.3568 22.1636 15.2811 22.0965C15.2053 22.0294 15.1586 21.9353 15.1508 21.8341C15.0237 20.921 14.8966 20.008 14.7634 19.0949C14.6468 19.1515 14.5436 19.2324 14.4607 19.3323C14.1944 19.5636 14.0309 19.5636 13.7828 19.3323L9.24891 14.7731C8.99468 14.5175 8.98863 14.3532 9.24891 14.0915L9.52135 13.7871L8.22596 13.5984L6.73083 13.3853C6.65849 13.3813 6.58906 13.3554 6.53176 13.3108C6.47446 13.2663 6.43198 13.2052 6.40999 13.1358C6.38568 13.0626 6.38421 12.9838 6.40585 12.9098C6.4275 12.8358 6.4712 12.7702 6.53103 12.7219C7.58047 11.6792 8.86335 10.9047 10.2719 10.4635C11.0554 10.21 11.8705 10.0686 12.6932 10.0436C12.7372 10.0528 12.7825 10.0528 12.8264 10.0436C12.8716 10.026 12.9112 9.9966 12.9414 9.95842C14.8351 7.89903 17.3004 6.45912 20.0176 5.82535C20.8346 5.62878 21.6715 5.52869 22.5115 5.52709C22.6124 5.51461 22.7146 5.53426 22.8037 5.58342C22.8928 5.63258 22.9642 5.70873 23.0079 5.80098V6.61668ZM19.8118 10.5306C19.8052 10.0429 19.6123 9.57655 19.2731 9.22801C18.9276 8.88585 18.4626 8.69346 17.9777 8.69228C17.7378 8.69249 17.5004 8.74048 17.2791 8.83346C17.0578 8.92644 16.857 9.06251 16.6883 9.23396C16.5186 9.40286 16.3836 9.60383 16.2912 9.82526C16.1987 10.0467 16.1506 10.2843 16.1496 10.5245C16.149 10.7667 16.1963 11.0066 16.2888 11.2302C16.3813 11.4538 16.5171 11.6567 16.6883 11.827C16.857 11.9984 17.0578 12.1347 17.2791 12.2276C17.5004 12.3206 17.7378 12.3686 17.9777 12.3688C18.2185 12.3694 18.4571 12.3218 18.6795 12.2288C18.9019 12.1358 19.1037 11.9992 19.2731 11.827C19.4436 11.6574 19.579 11.4556 19.6714 11.233C19.7639 11.0105 19.8116 10.7717 19.8118 10.5306Z" fill="white"/>
<path d="M5.72197 23.1313C5.44957 22.9791 5.39508 22.8574 5.48588 22.5713C5.87362 21.2336 6.3613 19.9274 6.94473 18.6635C7.06746 18.3756 7.24562 18.1149 7.46899 17.8966C7.69235 17.6782 7.95644 17.5065 8.24611 17.3913C8.72512 17.214 9.24947 17.2032 9.73525 17.3608C10.2288 17.5143 10.6557 17.832 10.9459 18.2617C11.2265 18.6916 11.3544 19.2043 11.3091 19.7166C11.2687 20.2292 11.0551 20.7125 10.7038 21.0861C10.3748 21.3906 9.99046 21.6283 9.5718 21.7861C8.45172 22.2849 7.30128 22.7119 6.12748 23.0644C6.06695 23.0644 6.00042 23.0643 5.95805 23.1313H5.72197Z" fill="white"/>
<path d="M45.9623 7.46225L36.6282 21.2674H45.9623V24.7735H31.5859V22.4605L40.9502 8.66137H31.5859V5.15527H45.9502L45.9623 7.46225Z" fill="black"/>
<path d="M46.3125 17.4743C46.3173 15.4756 47.109 13.5602 48.5145 12.1469C49.9199 10.7336 51.8248 9.93744 53.8124 9.93262C55.8016 9.93262 57.7091 10.7272 59.1157 12.1415C60.5222 13.5559 61.3125 15.4741 61.3125 17.4743C61.3125 19.4745 60.5222 21.3927 59.1157 22.8071C57.7091 24.2214 55.8016 25.0161 53.8124 25.0161C51.8248 25.0113 49.9199 24.2152 48.5145 22.8019C47.109 21.3886 46.3173 19.473 46.3125 17.4743ZM57.7349 17.4743C57.7349 15.1369 56.1369 13.4387 53.9577 13.4387C51.7786 13.4387 50.1745 15.1369 50.1745 17.4743C50.1745 19.8117 51.7483 21.51 53.9577 21.51C56.1671 21.51 57.7349 19.8117 57.7349 17.4743Z" fill="black"/>
<path d="M62.3594 17.4743C62.3594 15.4741 63.1495 13.5559 64.556 12.1416C65.9625 10.7272 67.8701 9.93267 69.8592 9.93267C71.186 9.92769 72.4898 10.2801 73.6353 10.9535C74.7807 11.6268 75.7259 12.5964 76.3725 13.7614L73.0311 15.3987C72.7012 14.837 72.2397 14.3647 71.6869 14.0231C71.1341 13.6815 70.5067 13.481 69.8592 13.4388C67.6801 13.4388 66.082 15.137 66.082 17.4743C66.082 19.8117 67.6801 21.5101 69.8592 21.5101C70.5067 21.4679 71.1341 21.2672 71.6869 20.9256C72.2397 20.584 72.7012 20.1119 73.0311 19.5501L76.3725 21.1874C75.7269 22.3533 74.7819 23.3236 73.6363 23.997C72.4907 24.6705 71.1863 25.0224 69.8592 25.0162C68.8743 25.0162 67.8991 24.8211 66.9891 24.4421C66.0792 24.0631 65.2525 23.5074 64.556 22.8071C63.8596 22.1068 63.3072 21.2755 62.9303 20.3604C62.5534 19.4454 62.3594 18.4647 62.3594 17.4743Z" fill="black"/>
<path d="M84.4059 16.3669L89.4059 24.7852H85.659L82.257 19.0514L81.0039 20.6339V24.7852H77.2812V3H81.0039V15.9226L85.6287 10.1339H89.4059L84.4059 16.3669Z" fill="black"/>
<path d="M103.297 19.9886C102.639 21.435 101.583 22.6619 100.254 23.5247C98.9252 24.3875 97.3787 24.8503 95.7969 24.8582C94.2896 24.8365 92.8223 24.3665 91.5802 23.5075C90.3381 22.6484 89.3769 21.4388 88.8176 20.0311C88.4708 19.1665 88.2939 18.2425 88.2969 17.3103C88.2945 16.3192 88.4869 15.3374 88.8629 14.4213C89.239 13.5052 89.7913 12.6729 90.4882 11.9721C91.1852 11.2713 92.013 10.7159 92.924 10.3377C93.835 9.95959 94.8114 9.76617 95.7969 9.76858C97.7343 9.76734 99.5965 10.5224 100.991 11.8748C102.386 13.2272 103.204 15.0711 103.273 17.0181C103.285 17.1456 103.285 17.2741 103.273 17.4016L92.5705 19.3555C92.8436 19.9861 93.2951 20.522 93.8688 20.8964C94.4425 21.2709 95.113 21.4675 95.7969 21.4616C98.2969 21.4616 99.9858 19.6355 100.192 19.0268L103.297 19.9886ZM92.0438 16.513L99.0535 15.2529C98.7164 14.5618 98.1823 13.9873 97.5193 13.6025C96.8564 13.2177 96.0946 13.0399 95.3308 13.092C94.5547 13.1773 93.826 13.5097 93.2511 14.0407C92.6761 14.5718 92.2849 15.2739 92.1347 16.0443L92.0438 16.513Z" fill="black"/>
<path d="M114.001 23.2875C112.915 24.3876 111.445 25.0167 109.903 25.0405C107.403 25.0405 105.485 23.8231 105.485 20.7796V13.5484H103.711V10.1823H105.485V5.31269L109.207 5.22754V10.1944H112.633V13.5605H109.207V19.6475C109.207 20.8649 109.903 21.577 110.715 21.577C111.097 21.5945 111.474 21.4787 111.782 21.2492C112.09 21.0197 112.309 20.6905 112.403 20.3171L114.001 23.2875Z" fill="black"/>
</svg>
